<svg width="20" height="22" viewBox="0 0 20 22" fill="none" xmlns="http://www.w3.org/2000/svg">
<path d="M18.5714 1.375H1.42411C0.638393 1.375 0 1.99805 0 2.76289V19.2371C0 20.002 0.638393 20.625 1.42411 20.625H18.5714C19.3571 20.625 20 20.002 20 19.2371V2.76289C20 1.99805 19.3571 1.375 18.5714 1.375ZM6.04464 17.875H3.08036V8.68828H6.04911V17.875H6.04464ZM4.5625 7.43359C3.61161 7.43359 2.84375 6.69023 2.84375 5.7793C2.84375 4.86836 3.61161 4.125 4.5625 4.125C5.50893 4.125 6.28125 4.86836 6.28125 5.7793C6.28125 6.69453 5.51339 7.43359 4.5625 7.43359ZM17.1562 17.875H14.192V13.4062C14.192 12.3406 14.1696 10.9699 12.6518 10.9699C11.1071 10.9699 10.8705 12.1301 10.8705 13.3289V17.875H7.90625V8.68828H10.75V9.94297H10.7902C11.1875 9.22109 12.1563 8.46055 13.5982 8.46055C16.5982 8.46055 17.1562 10.3641 17.1562 12.8391V17.875Z" fill="#F55151"/>
</svg>
