<svg width="38" height="38" viewBox="0 0 38 38" fill="none" xmlns="http://www.w3.org/2000/svg">
<circle cx="19" cy="19" r="19" fill="#D9D9D9"/>
<g clip-path="url(#clip0_36_618)">
<path d="M18.9864 30C18.6351 30 18.3378 29.8739 18.0943 29.6218C17.8508 29.3696 17.7291 29.0684 17.7291 28.7182V20.8482H17.1448C15.8982 20.8085 14.7344 20.5352 13.6534 20.0285C12.5724 19.5217 11.6034 18.8112 10.7463 17.897C9.85227 16.9674 9.17102 15.8899 8.7026 14.6643C8.2342 13.4388 8 12.1614 8 10.832V9.40108C8 9.00858 8.13269 8.67694 8.39807 8.40617C8.66346 8.13539 8.99823 8 9.40239 8H10.704C11.9737 8 13.1929 8.25382 14.3613 8.76145C15.5298 9.26906 16.5744 9.98904 17.4954 10.9214C18.0797 11.5375 18.5677 12.2209 18.9593 12.9716C19.3509 13.7224 19.6518 14.5096 19.8619 15.3333C19.9526 15.1875 20.0524 15.0469 20.1612 14.9115C20.2701 14.7761 20.3748 14.6385 20.4754 14.4986C21.3961 13.5663 22.4406 12.8463 23.6088 12.3387C24.777 11.8311 26.006 11.5772 27.296 11.5772H28.5976C28.9799 11.5772 29.3091 11.7126 29.5855 11.9834C29.8618 12.2542 30 12.5858 30 12.9783V14.4092C30 15.7386 29.7512 17.016 29.2537 18.2416C28.7562 19.4671 28.0603 20.5447 27.166 21.4743C26.2895 22.3884 25.3053 23.0939 24.2134 23.5908C23.1214 24.0876 21.9826 24.3559 20.7968 24.3957H20.2709V28.7182C20.2709 29.0684 20.1447 29.3696 19.8921 29.6218C19.6396 29.8739 19.3377 30 18.9864 30ZM17.7583 18.1951C17.7583 17.2213 17.5781 16.2525 17.2178 15.2886C16.8575 14.3248 16.3431 13.4904 15.6747 12.7854C15.0647 12.1401 14.3197 11.6283 13.4396 11.2502C12.5596 10.872 11.6034 10.6631 10.571 10.6233C10.61 11.7561 10.795 12.7895 11.1262 13.7236C11.4573 14.6576 11.9345 15.4526 12.5578 16.1084C13.2979 16.9033 14.0868 17.4399 14.9243 17.7182C15.7618 17.9964 16.7065 18.1554 17.7583 18.1951ZM20.2709 21.8022C21.2253 21.8022 22.1554 21.6183 23.0611 21.2507C23.9668 20.883 24.7508 20.3514 25.413 19.6558C26.0168 19.0199 26.4892 18.2349 26.83 17.3008C27.1709 16.3668 27.3705 15.3333 27.429 14.2005C26.3577 14.2403 25.3857 14.4492 24.5131 14.8272C23.6404 15.2052 22.8983 15.7118 22.2869 16.3469C21.5278 17.1698 21.0166 18.0165 20.7534 18.887C20.4902 19.7575 20.3293 20.7292 20.2709 21.8022Z" fill="#F55151"/>
</g>
<defs>
<clipPath id="clip0_36_618">
<rect width="22" height="22" fill="white" transform="translate(8 8)"/>
</clipPath>
</defs>
</svg>
