<svg width="28" height="28" viewBox="0 0 28 28" fill="none" xmlns="http://www.w3.org/2000/svg">
<path d="M10.325 20.3583C10.1695 20.1639 10.0868 19.95 10.0771 19.7166C10.0674 19.4833 10.15 19.2791 10.325 19.1041L15.4583 13.9708L10.2958 8.80831C10.1403 8.65276 10.0674 8.44373 10.0771 8.18123C10.0868 7.91873 10.1695 7.7097 10.325 7.55414C10.5195 7.3597 10.7285 7.26734 10.9521 7.27706C11.1757 7.28678 11.375 7.37914 11.55 7.55414L17.3542 13.3583C17.4514 13.4555 17.5195 13.5528 17.5583 13.65C17.5972 13.7472 17.6167 13.8541 17.6167 13.9708C17.6167 14.0875 17.5972 14.1944 17.5583 14.2916C17.5195 14.3889 17.4514 14.4861 17.3542 14.5833L11.5792 20.3583C11.4042 20.5333 11.2 20.616 10.9667 20.6062C10.7333 20.5965 10.5195 20.5139 10.325 20.3583Z" fill="#F55151"/>
</svg>
