<svg width="28" height="28" viewBox="0 0 28 28" fill="none" xmlns="http://www.w3.org/2000/svg">
<path d="M14 17.5875C13.8833 17.5875 13.7764 17.5681 13.6792 17.5292C13.5819 17.4903 13.4847 17.4222 13.3875 17.325L7.61249 11.55C7.45694 11.3945 7.38402 11.1854 7.39374 10.9229C7.40346 10.6604 7.4861 10.4514 7.64166 10.2959C7.8361 10.1014 8.04513 10.0188 8.26874 10.0479C8.49235 10.0771 8.69166 10.1695 8.86666 10.325L14 15.4584L19.1333 10.325C19.2889 10.1695 19.4979 10.082 19.7604 10.0625C20.0229 10.0431 20.2319 10.1306 20.3875 10.325C20.5819 10.4806 20.6646 10.6847 20.6354 10.9375C20.6062 11.1903 20.5139 11.4042 20.3583 11.5792L14.6125 17.325C14.5153 17.4222 14.418 17.4903 14.3208 17.5292C14.2236 17.5681 14.1167 17.5875 14 17.5875Z" fill="#F55151"/>
</svg>
