<svg width="38" height="38" viewBox="0 0 38 38" fill="none" xmlns="http://www.w3.org/2000/svg">
<circle cx="19" cy="19" r="19" fill="#D9D9D9"/>
<path d="M19.8008 29.6352C19.5573 29.392 19.4355 29.1161 19.4355 28.8074C19.4355 28.4987 19.5573 28.2134 19.8008 27.9515L22.9757 24.8087L13.1699 15.0153L10.023 18.1862C9.77948 18.4294 9.49851 18.5463 9.18008 18.537C8.86164 18.5276 8.58067 18.4107 8.33716 18.1862C8.11239 17.9617 8 17.6811 8 17.3444C8 17.0077 8.11239 16.727 8.33716 16.5026L9.06769 15.773L8.42146 15.1276C8.17795 14.8656 8.05619 14.5523 8.05619 14.1875C8.05619 13.8227 8.17795 13.5187 8.42146 13.2755L9.9106 11.7883L9.68582 11.5638C9.42358 11.3019 9.29246 10.9885 9.29246 10.6237C9.29246 10.2589 9.42358 9.94558 9.68582 9.68367C9.94806 9.44048 10.2618 9.31888 10.6271 9.31888C10.9923 9.31888 11.2967 9.44048 11.5402 9.68367L11.765 9.93622L13.2542 8.44898C13.4977 8.20578 13.802 8.08418 14.1673 8.08418C14.5326 8.08418 14.8463 8.20578 15.1086 8.44898L15.7548 9.09439L16.5134 8.3648C16.7569 8.1216 17.0332 8 17.3423 8C17.6513 8 17.9276 8.1216 18.1711 8.3648C18.4146 8.60799 18.5364 8.88393 18.5364 9.1926C18.5364 9.50128 18.4146 9.77721 18.1711 10.0204L15.0243 13.1633L24.8301 22.9566L27.977 19.8138C28.2018 19.5706 28.4781 19.449 28.8059 19.449C29.1337 19.449 29.4193 19.5706 29.6628 19.8138C29.8876 20.0383 30 20.3142 30 20.6416C30 20.969 29.8876 21.2449 29.6628 21.4694L28.9042 22.227L29.5504 22.8724C29.794 23.1344 29.9157 23.4477 29.9157 23.8125C29.9157 24.1773 29.794 24.4813 29.5504 24.7245L28.0332 26.2398L28.258 26.4643C28.5202 26.7262 28.6513 27.0395 28.6513 27.4043C28.6513 27.7691 28.5202 28.0731 28.258 28.3163C28.0145 28.5782 27.7148 28.7092 27.3589 28.7092C27.003 28.7092 26.6939 28.5782 26.4317 28.3163L26.2069 28.0638L24.7178 29.551C24.4742 29.7942 24.1699 29.9158 23.8046 29.9158C23.4393 29.9158 23.1256 29.7942 22.8633 29.551L22.2171 28.8776L21.4585 29.6352C21.215 29.8784 20.9387 30 20.6296 30C20.3206 30 20.0443 29.8784 19.8008 29.6352Z" fill="url(#paint0_linear_36_621)"/>
<defs>
<linearGradient id="paint0_linear_36_621" x1="19" y1="8" x2="19" y2="30" gradientUnits="userSpaceOnUse">
<stop stop-color="#FF7474"/>
<stop offset="1" stop-color="#F55151"/>
</linearGradient>
</defs>
</svg>
