<svg width="38" height="38" viewBox="0 0 38 38" fill="none" xmlns="http://www.w3.org/2000/svg">
<circle cx="19" cy="19" r="19" fill="#D9D9D9"/>
<path d="M18.9986 27.5937C17.1204 27.5937 15.5243 26.9365 14.2104 25.6219C12.8965 24.3073 12.2396 22.7111 12.2396 20.8333C12.2396 19.3514 12.675 18.0222 13.5458 16.8458C14.4167 15.6694 15.5549 14.8674 16.9604 14.4396C16.0896 14.1951 15.4097 13.7292 14.9208 13.0417C14.4319 12.3542 14.134 11.5826 14.0271 10.7271C13.966 10.559 13.924 10.3833 13.901 10.2C13.8781 10.0167 13.8437 9.82569 13.7979 9.62708C13.3884 9.59653 12.9805 9.48958 12.5741 9.30625C12.1678 9.12292 11.8347 8.80208 11.575 8.34375C13.5306 8.05347 15.2646 8.45833 16.7771 9.55833C18.2896 10.6583 19.084 12.1097 19.1604 13.9125C19.3743 13.2556 19.6708 12.6368 20.0498 12.0562C20.4288 11.4757 20.8733 10.9333 21.3833 10.4292C21.5819 10.2306 21.8149 10.1312 22.0823 10.1312C22.3497 10.1312 22.5826 10.2344 22.7813 10.4406C22.9799 10.6469 23.0792 10.8807 23.0792 11.1421C23.0792 11.4035 22.9799 11.6395 22.7813 11.85C22.4146 12.2167 22.0899 12.6139 21.8073 13.0417C21.5247 13.4694 21.2764 13.9201 21.0625 14.3937C22.4681 14.8368 23.6024 15.6495 24.4656 16.8317C25.3288 18.014 25.7604 19.3479 25.7604 20.8333C25.7604 22.7111 25.103 24.3073 23.7881 25.6219C22.4733 26.9365 20.8768 27.5937 18.9986 27.5937ZM18.9985 25.4167C20.2808 25.4167 21.3693 24.9736 22.2641 24.0875C23.1589 23.2014 23.6063 22.1172 23.6063 20.8349C23.6063 19.5526 23.1589 18.464 22.2641 17.5692C21.3693 16.6745 20.2808 16.2271 18.9985 16.2271C17.7162 16.2271 16.6319 16.6745 15.7458 17.5692C14.8597 18.464 14.4167 19.5526 14.4167 20.8349C14.4167 22.1172 14.8597 23.2014 15.7458 24.0875C16.6319 24.9736 17.7162 25.4167 18.9985 25.4167Z" fill="#F55151"/>
</svg>
