<svg width="507" height="380" viewBox="0 0 507 380" fill="none" xmlns="http://www.w3.org/2000/svg">
<g clip-path="url(#clip0_12_55)">
<path d="M141.141 287.669L112.528 290.783L98.8354 281.442L90.9116 290.783L94.7189 310.489L99.0673 326.047L125.477 312.626L146.746 310.702L141.141 287.669Z" fill="#A0616A"/>
<path d="M286.118 254.667L217.055 253.419L133.053 288.907L144.253 313.197L220.167 292.02L337.758 325.641L321.582 245.954L286.118 254.667Z" fill="#2F2E41"/>
<path d="M96.6805 289.932L110.412 288.858L92.9505 251.95C92.9505 251.95 84.8624 249.087 83.6158 257.993C82.3693 266.889 92.9891 327.159 96.1007 327.159C99.2123 327.159 109.649 321.068 109.649 321.068L94.197 291.798L96.6902 289.932L96.6805 289.932Z" fill="#2F2E41"/>
<path d="M440.981 279.827C439.599 279.972 438.092 280.194 436.488 280.523C429.685 281.906 429.549 286.528 429.607 287.582L429.559 287.553C428.873 288.646 428.448 289.758 428.187 290.812L427.878 276.655C428.081 276.239 428.264 275.756 428.419 275.273C428.931 276.839 429.762 278.318 430.477 278.222C431.414 278.096 431.82 275.34 431.646 273.387C432.835 274.915 434.835 276.559 435.589 276.056C436.188 275.65 435.83 273.986 435.173 272.478C436.546 273.31 438.063 273.851 438.536 273.319C439.184 272.604 437.637 270.157 436.217 268.794C438.121 268.968 440.546 268.668 440.701 267.798C440.836 267.082 439.387 266.183 437.85 265.603C439.396 265.197 440.846 264.481 440.797 263.775C440.739 262.934 438.594 262.373 436.739 262.296C438.14 261.203 439.425 259.685 439.029 258.999C438.671 258.37 436.99 258.612 435.434 259.163C436.352 257.848 437 256.369 436.507 255.866C435.898 255.237 433.724 256.32 432.236 257.529C432.526 255.653 432.381 253.284 431.54 253.071C430.835 252.887 429.839 254.27 429.153 255.769C428.854 254.193 428.235 252.704 427.53 252.704C426.525 252.704 425.713 255.74 425.713 257.713V258.032C425.616 257.916 425.5 257.79 425.365 257.664C423.945 256.291 421.21 254.763 420.505 255.479C420.012 255.982 420.659 257.461 421.577 258.776C420.021 258.225 418.34 257.974 417.982 258.612C417.499 259.463 419.577 261.571 421.258 262.596C421.162 262.586 421.046 262.576 420.939 262.567C418.968 262.431 415.886 263.04 415.818 264.046C415.77 264.752 417.219 265.468 418.765 265.874C417.219 266.454 415.779 267.353 415.915 268.069C416.069 268.939 418.495 269.239 420.398 269.065C418.978 270.428 417.432 272.874 418.079 273.59C418.553 274.112 420.07 273.571 421.442 272.749C420.785 274.257 420.427 275.92 421.026 276.326C421.819 276.858 424.012 275.002 425.162 273.406C425.046 275.36 425.51 278.048 426.438 278.154C426.824 278.202 427.24 277.787 427.607 277.148L426.554 292.368C426.312 294.138 427.878 295.298 428.023 296.023L428.245 306.331C427.994 305.596 427.646 304.842 427.182 304.097L427.134 304.127C427.192 303.063 427.056 298.45 420.253 297.068C418.649 296.739 417.142 296.517 415.76 296.371C414.127 296.197 413.489 298.431 414.968 299.156C417.103 300.201 419.113 301.516 420.157 303.072C422.833 307.056 426.525 304.755 427.056 304.397C427.646 305.374 428.032 306.36 428.274 307.298L428.39 312.771C428.361 312.897 428.342 312.974 428.342 312.974L428.399 312.993L428.689 326.241L431.395 326.221L430.429 312.684C430.593 311.949 431.096 309.464 430.429 306.882L429.462 296.246L428.206 292.069C428.39 290.773 428.815 289.322 429.675 287.882C430.197 288.239 433.898 290.541 436.575 286.557C437.618 285 439.628 283.685 441.764 282.641C443.233 281.916 442.604 279.682 440.971 279.856V279.827L440.981 279.827ZM428.651 311.166L428.602 308.845C428.709 309.725 428.699 310.508 428.651 311.166Z" fill="#F2F2F2"/>
<path d="M0 325.97C0 326.608 0.512151 327.121 1.14992 327.121H505.85C506.488 327.121 507 326.608 507 325.97C507 325.332 506.488 324.819 505.85 324.819H1.14992C0.512151 324.819 0 325.332 0 325.97Z" fill="#3F3D56"/>
<path d="M334.879 171.644L341.73 148.611L361.636 147.982L369.724 176.624L334.879 171.644Z" fill="#A0616A"/>
<path opacity="0.1" d="M334.879 171.644L341.73 148.611L361.636 147.982L369.724 176.624L334.879 171.644Z" fill="black"/>
<path d="M365.444 168.433L333.091 167.186L323.061 187.831L307.58 279.256L388.78 297.619C388.78 297.619 393.757 195.508 382.557 181.188C371.357 166.867 365.444 168.424 365.444 168.424V168.433Z" fill="#E6E6E6"/>
<path d="M270.686 96.8399C269.333 89.6361 264.531 84.4822 259.941 85.3428C255.35 86.2034 252.732 92.74 254.085 99.9535C254.587 102.845 255.766 105.562 257.534 107.902L263.632 138.371L275.663 135.924L270.329 105.504C271.131 102.68 271.247 99.7118 270.667 96.8399L270.686 96.8399Z" fill="#A0616A"/>
<path d="M360.602 176.73L294.525 163.705L275.952 107.815L255.148 112.746L276.02 195.305L350.813 205.149L360.602 176.73Z" fill="#E6E6E6"/>
<path d="M259.97 7.31903C259.902 7.38672 259.844 7.44473 259.776 7.51242C249.775 -2.4279 233.657 -2.51492 223.539 7.31903C213.393 17.182 213.045 33.3785 222.766 43.667L223.008 43.9184L258.81 80.8078L295.926 44.7403L295.82 44.6339C295.878 44.5759 295.946 44.5179 296.013 44.4599C306.266 34.5002 306.498 18.1103 296.545 7.86052C286.592 -2.39889 270.213 -2.63096 259.97 7.3287V7.31903Z" fill="#F55151"/>
<path d="M268.821 190.267C268.705 190.383 268.589 190.509 268.473 190.625C250.045 172.33 220.37 172.166 201.739 190.267C183.05 208.436 182.413 238.267 200.319 257.21L200.763 257.684L266.705 325.622L335.053 259.192L334.86 258.999C334.975 258.892 335.091 258.786 335.207 258.68C354.08 240.336 354.524 210.158 336.193 191.263C317.862 172.379 287.703 171.934 268.821 190.277V190.267Z" fill="#F55151"/>
<path d="M369.637 265.99C369.637 265.99 394.056 286.344 384.992 298.692C375.938 311.04 345.131 333.145 331.216 326.289C317.301 319.433 288.418 269.887 288.418 269.887L280.861 320.642L261.09 318.892C261.09 318.892 246.731 247.202 259.97 236.207C273.218 225.213 333.516 244.649 333.516 244.649L369.628 265.999L369.637 265.99Z" fill="#2F2E41"/>
<path d="M266.028 312.152L260.366 329.761L248.567 346.305L257.612 359.852L286.36 340.91L286.263 331.163L281.75 325.08L278.562 313.419L266.028 312.152Z" fill="#A0616A"/>
<path d="M256.984 353.18L249.765 341.441L224.911 373.825C224.911 373.825 226.061 382.334 234.546 379.375C243.03 376.416 295.627 349.438 294.206 346.663C292.786 343.888 286.959 328.977 286.959 328.977L259.786 354.534L256.993 353.171L256.984 353.18Z" fill="#2F2E41"/>
<path d="M272.242 265.825C264.946 266.551 259.409 270.902 259.873 275.543C260.337 280.185 266.618 283.366 273.914 282.641C276.832 282.389 279.644 281.442 282.127 279.885L312.982 276.433L311.581 264.23L280.832 266.928C278.098 265.883 275.15 265.506 272.242 265.835L272.242 265.825Z" fill="#A0616A"/>
<path d="M359.539 183.073L340.87 247.821L283.625 261.513L286.737 282.689L370.739 268.987L386.983 195.276L359.539 183.073Z" fill="#E6E6E6"/>
<path d="M349.151 155.505C363.753 155.505 375.59 143.66 375.59 129.049C375.59 114.438 363.753 102.593 349.151 102.593C334.55 102.593 322.713 114.438 322.713 129.049C322.713 143.66 334.55 155.505 349.151 155.505Z" fill="#A0616A"/>
<path d="M351.258 93.4749C350.495 93.9197 349.47 93.2428 349.219 92.3919C348.977 91.541 349.258 90.632 349.548 89.8005C350.021 88.3887 350.495 86.9769 350.978 85.5749C351.992 82.5773 353.065 79.4733 355.259 77.1913C358.563 73.749 363.82 72.869 368.555 73.5072C374.633 74.3195 380.624 77.6168 383.456 83.0608C386.277 88.5047 385.079 96.105 379.977 99.499C387.253 107.844 389.785 117.146 389.389 128.208C388.993 139.28 376.933 149.462 369.077 157.255C367.318 156.192 365.724 151.202 366.69 149.384C367.656 147.576 366.275 145.468 367.463 143.805C368.652 142.142 369.657 144.791 368.449 143.138C367.685 142.093 370.662 139.676 369.531 139.057C364.052 136.021 362.226 129.185 358.776 123.944C354.621 117.629 347.509 113.346 339.991 112.64C335.845 112.253 331.468 112.959 328.076 115.367C324.674 117.775 322.481 122.077 323.264 126.168C321.225 124.098 320.21 121.053 320.587 118.171C320.973 115.289 322.742 112.621 325.254 111.151C323.727 106.103 325.032 100.292 328.578 96.3854C332.125 92.4789 346.494 93.1461 351.664 94.1711L351.268 93.4846L351.258 93.4749Z" fill="#2F2E41"/>
<path d="M352.07 112.785C358.921 113.53 363.868 119.467 368.043 124.949C370.449 128.111 372.971 131.602 372.913 135.576C372.855 139.589 370.169 143.041 368.884 146.851C366.787 153.078 368.826 160.475 373.822 164.74C368.893 165.678 363.559 161.974 362.709 157.023C361.714 151.26 366.081 145.7 365.569 139.869C365.115 134.735 361.076 130.79 357.636 126.951C354.196 123.112 350.978 118.026 352.553 113.123L352.07 112.795L352.07 112.785Z" fill="#2F2E41"/>
</g>
<defs>
<clipPath id="clip0_12_55">
<rect width="507" height="380" fill="white"/>
</clipPath>
</defs>
</svg>
