<svg width="18" height="24" viewBox="0 0 18 24" fill="none" xmlns="http://www.w3.org/2000/svg">
<path d="M1.5 3C0.670312 3 0 2.32969 0 1.5C0 0.670312 0.670312 0 1.5 0H6C8.48437 0 10.5 2.01562 10.5 4.5V18.8766L13.9406 15.4359C14.5266 14.85 15.4781 14.85 16.0641 15.4359C16.65 16.0219 16.65 16.9734 16.0641 17.5594L10.0641 23.5594C9.47812 24.1453 8.52656 24.1453 7.94062 23.5594L1.94062 17.5594C1.35469 16.9734 1.35469 16.0219 1.94062 15.4359C2.52656 14.85 3.47812 14.85 4.06406 15.4359L7.5 18.8766V4.5C7.5 3.67031 6.82969 3 6 3H1.5Z" fill="#F55151"/>
</svg>
