<svg width="182" height="37" viewBox="0 0 182 37" fill="none" xmlns="http://www.w3.org/2000/svg">
<path d="M12.5 0C14.4 0 16.1583 0.45 17.775 1.35C19.3917 2.25 20.8 3.55 22 5.25C23.4 3.45 24.8833 2.125 26.45 1.275C28.0167 0.425 29.7 0 31.5 0C34.4667 0 36.9583 1.00833 38.975 3.025C40.9917 5.04167 42 7.55 42 10.55C42 11.05 41.975 11.5417 41.925 12.025C41.875 12.5083 41.7833 13 41.65 13.5H38.55C38.7167 13 38.8333 12.5083 38.9 12.025C38.9667 11.5417 39 11.05 39 10.55C39 8.35 38.3 6.54167 36.9 5.125C35.5 3.70833 33.7 3 31.5 3C29.8 3 28.2167 3.525 26.75 4.575C25.2833 5.625 24.1 7.1 23.2 9H20.75C19.8833 7.13333 18.7167 5.66667 17.25 4.6C15.7833 3.53333 14.2 3 12.5 3C10.3 3 8.5 3.70833 7.1 5.125C5.7 6.54167 5 8.35 5 10.55C5 11.05 5.03333 11.5417 5.1 12.025C5.16667 12.5083 5.28333 13 5.45 13.5H2.35C2.21667 13 2.125 12.5083 2.075 12.025C2.025 11.5417 2 11.05 2 10.55C2 7.55 3.00833 5.04167 5.025 3.025C7.04167 1.00833 9.53333 0 12.5 0ZM7.6 22.5H11.5C12.7667 23.9 14.2583 25.425 15.975 27.075C17.6917 28.725 19.7 30.6 22 32.7C24.3 30.6 26.3 28.725 28 27.075C29.7 25.425 31.1833 23.9 32.45 22.5H36.4C35 24.1333 33.3 25.9417 31.3 27.925C29.3 29.9083 26.8833 32.2 24.05 34.8L22 36.65L19.95 34.8C17.1167 32.2 14.7 29.9083 12.7 27.925C10.7 25.9417 9 24.1333 7.6 22.5ZM20.1 25.5C20.4 25.5 20.6667 25.4083 20.9 25.225C21.1333 25.0417 21.3 24.8 21.4 24.5L24.45 15.45L26.75 18.85C26.9167 19.05 27.1 19.2083 27.3 19.325C27.5 19.4417 27.7333 19.5 28 19.5H43.5V16.5H28.85L25.25 11.2C25.0833 10.9667 24.8833 10.8 24.65 10.7C24.4167 10.6 24.1667 10.55 23.9 10.55C23.6 10.55 23.325 10.6417 23.075 10.825C22.825 11.0083 22.65 11.25 22.55 11.55L19.55 20.6L17.2 17.15C17.0333 16.95 16.8583 16.7917 16.675 16.675C16.4917 16.5583 16.2667 16.5 16 16.5H0.5V19.5H15.1L18.7 24.85C18.8667 25.0833 19.075 25.25 19.325 25.35C19.575 25.45 19.8333 25.5 20.1 25.5Z" fill="#F55151"/>
<path d="M69.12 10.32V27H66.384V19.704H58.536V27H55.8V10.32H58.536V17.472H66.384V10.32H69.12ZM84.8419 20.064C84.8419 20.56 84.8099 21.008 84.7459 21.408H74.6419C74.7219 22.464 75.1139 23.312 75.8179 23.952C76.5219 24.592 77.3859 24.912 78.4099 24.912C79.8819 24.912 80.9219 24.296 81.5299 23.064H84.4819C84.0819 24.28 83.3539 25.28 82.2979 26.064C81.2579 26.832 79.9619 27.216 78.4099 27.216C77.1459 27.216 76.0099 26.936 75.0019 26.376C74.0099 25.8 73.2259 25 72.6499 23.976C72.0899 22.936 71.8099 21.736 71.8099 20.376C71.8099 19.016 72.0819 17.824 72.6259 16.8C73.1859 15.76 73.9619 14.96 74.9539 14.4C75.9619 13.84 77.1139 13.56 78.4099 13.56C79.6579 13.56 80.7699 13.832 81.7459 14.376C82.7219 14.92 83.4819 15.688 84.0259 16.68C84.5699 17.656 84.8419 18.784 84.8419 20.064ZM81.9859 19.2C81.9699 18.192 81.6099 17.384 80.9059 16.776C80.2019 16.168 79.3299 15.864 78.2899 15.864C77.3459 15.864 76.5379 16.168 75.8659 16.776C75.1939 17.368 74.7939 18.176 74.6659 19.2H81.9859ZM86.6224 20.328C86.6224 19 86.8944 17.824 87.4384 16.8C87.9984 15.776 88.7504 14.984 89.6944 14.424C90.6544 13.848 91.7104 13.56 92.8624 13.56C93.9024 13.56 94.8064 13.768 95.5744 14.184C96.3584 14.584 96.9824 15.088 97.4464 15.696V13.776H100.206V27H97.4464V25.032C96.9824 25.656 96.3504 26.176 95.5504 26.592C94.7504 27.008 93.8384 27.216 92.8144 27.216C91.6784 27.216 90.6384 26.928 89.6944 26.352C88.7504 25.76 87.9984 24.944 87.4384 23.904C86.8944 22.848 86.6224 21.656 86.6224 20.328ZM97.4464 20.376C97.4464 19.464 97.2544 18.672 96.8704 18C96.5024 17.328 96.0144 16.816 95.4064 16.464C94.7984 16.112 94.1424 15.936 93.4384 15.936C92.7344 15.936 92.0784 16.112 91.4704 16.464C90.8624 16.8 90.3664 17.304 89.9824 17.976C89.6144 18.632 89.4304 19.416 89.4304 20.328C89.4304 21.24 89.6144 22.04 89.9824 22.728C90.3664 23.416 90.8624 23.944 91.4704 24.312C92.0944 24.664 92.7504 24.84 93.4384 24.84C94.1424 24.84 94.7984 24.664 95.4064 24.312C96.0144 23.96 96.5024 23.448 96.8704 22.776C97.2544 22.088 97.4464 21.288 97.4464 20.376ZM106.536 9.24V27H103.8V9.24H106.536ZM113.32 16.008V23.328C113.32 23.824 113.432 24.184 113.656 24.408C113.896 24.616 114.296 24.72 114.856 24.72H116.536V27H114.376C113.144 27 112.2 26.712 111.544 26.136C110.888 25.56 110.56 24.624 110.56 23.328V16.008H109V13.776H110.56V10.488H113.32V13.776H116.536V16.008H113.32ZM125.898 13.56C126.906 13.56 127.802 13.776 128.586 14.208C129.386 14.64 130.01 15.28 130.458 16.128C130.922 16.976 131.154 18 131.154 19.2V27H128.442V19.608C128.442 18.424 128.146 17.52 127.554 16.896C126.962 16.256 126.154 15.936 125.13 15.936C124.106 15.936 123.29 16.256 122.682 16.896C122.09 17.52 121.794 18.424 121.794 19.608V27H119.058V9.24H121.794V15.312C122.258 14.752 122.842 14.32 123.546 14.016C124.266 13.712 125.05 13.56 125.898 13.56ZM147.964 10.32V27H145.228V19.704H137.38V27H134.644V10.32H137.38V17.472H145.228V10.32H147.964ZM163.542 13.776V27H160.806V25.44C160.374 25.984 159.806 26.416 159.102 26.736C158.414 27.04 157.678 27.192 156.894 27.192C155.854 27.192 154.918 26.976 154.086 26.544C153.27 26.112 152.622 25.472 152.142 24.624C151.678 23.776 151.446 22.752 151.446 21.552V13.776H154.158V21.144C154.158 22.328 154.454 23.24 155.046 23.88C155.638 24.504 156.446 24.816 157.47 24.816C158.494 24.816 159.302 24.504 159.894 23.88C160.502 23.24 160.806 22.328 160.806 21.144V13.776H163.542ZM169.888 15.744C170.352 15.104 170.984 14.584 171.784 14.184C172.6 13.768 173.504 13.56 174.496 13.56C175.664 13.56 176.72 13.84 177.664 14.4C178.608 14.96 179.352 15.76 179.896 16.8C180.44 17.824 180.712 19 180.712 20.328C180.712 21.656 180.44 22.848 179.896 23.904C179.352 24.944 178.6 25.76 177.64 26.352C176.696 26.928 175.648 27.216 174.496 27.216C173.472 27.216 172.56 27.016 171.76 26.616C170.976 26.216 170.352 25.704 169.888 25.08V27H167.152V9.24H169.888V15.744ZM177.928 20.328C177.928 19.416 177.736 18.632 177.352 17.976C176.984 17.304 176.488 16.8 175.864 16.464C175.256 16.112 174.6 15.936 173.896 15.936C173.208 15.936 172.552 16.112 171.928 16.464C171.32 16.816 170.824 17.328 170.44 18C170.072 18.672 169.888 19.464 169.888 20.376C169.888 21.288 170.072 22.088 170.44 22.776C170.824 23.448 171.32 23.96 171.928 24.312C172.552 24.664 173.208 24.84 173.896 24.84C174.6 24.84 175.256 24.664 175.864 24.312C176.488 23.944 176.984 23.416 177.352 22.728C177.736 22.04 177.928 21.24 177.928 20.328Z" fill="#594F4F"/>
</svg>
